<svg width="73" height="74" viewBox="0 0 73 74" fill="none" xmlns="http://www.w3.org/2000/svg">
<g id="Group">
<path id="Vector" d="M53.9086 58.4579C56.1371 55.0537 55.6449 51.016 54.9704 45.5336C53.8949 36.7518 48.9868 33.6528 48.6996 25.5774C48.5447 21.248 50.796 17.7025 51.4568 15.6016C50.6365 14.7129 45.3774 9.22146 36.7095 9.13487C27.7956 9.04373 22.3406 14.7403 21.543 15.6016C22.2175 17.7572 24.446 21.2708 24.3002 25.5774C24.0222 33.6483 19.1049 36.7472 18.0294 45.5336C17.3595 51.016 16.8627 55.0537 19.0912 58.4579C25.0977 67.6317 47.8976 67.6317 53.904 58.4579H53.9086Z" fill="white"/>
<path id="Vector_2" d="M52.7876 38.1698L52.2954 38.8442C51.4888 35.9823 46.5032 32.0722 46.5032 25.9837C46.5032 22.5065 49.3469 19.0658 50.9146 16.0489C51.1561 16.213 51.3977 15.5613 51.6301 15.739L51.4523 16.0124C50.7961 18.0951 48.5448 21.6133 48.6952 25.9108C48.8821 31.0969 51.0331 34.328 52.7876 38.1698Z" fill="#CF9FF4"/>
<path id="Vector_3" d="M26.5014 25.9883C26.5014 32.0768 21.5203 35.9823 20.7091 38.8488L20.2169 38.1743C21.9715 34.3326 24.1225 31.1015 24.3093 25.9154C24.4597 21.6179 22.2085 18.1042 21.5522 16.017L21.3745 15.7436C21.6115 15.5704 21.8439 16.2175 22.09 16.0535C23.6622 19.0704 26.5059 22.5111 26.5059 25.9883H26.5014Z" fill="#CF9FF4"/>
<g id="Group_2">
<path id="Vector_4" d="M21.5431 16.0166C22.2039 18.0993 23.9037 21.6175 23.7534 25.9104C23.4662 34.0223 18.9272 37.3491 18.0295 45.6979C17.7332 48.4687 17.6375 52.8118 19.0913 58.5175" stroke="black" stroke-width="1.14387" stroke-linecap="round" stroke-linejoin="round"/>
<path id="Vector_5" d="M51.4568 16.0166C50.796 18.0993 49.0962 21.6175 49.2466 25.9104C49.5337 34.0223 54.0727 37.3491 54.9705 45.6979C55.2667 48.4687 55.3624 52.8118 53.9086 58.5175" stroke="black" stroke-width="1.14387" stroke-linecap="round" stroke-linejoin="round"/>
</g>
<path id="Vector_6" d="M36.3678 31.1602C36.3678 31.1602 36.8828 31.9805 36.4635 32.8008" stroke="black" stroke-width="1.15754" stroke-linecap="round" stroke-linejoin="round"/>
<path id="Vector_7" d="M31.3822 41.4095C32.6719 41.5826 34.0072 41.7011 35.3926 41.7422C42.789 41.9746 48.2212 40.0514 52.7329 38.0234" stroke="black" stroke-width="1.12108" stroke-linecap="round" stroke-linejoin="round"/>
<path id="Vector_8" d="M20.3263 37.9463C22.5183 38.9443 24.3048 39.9014 27.1804 40.6077" stroke="black" stroke-width="1.12108" stroke-linecap="round" stroke-linejoin="round"/>
<g id="Group_3">
<path id="Vector_9" d="M33.4102 53.9098L36.5 55.3089L39.5898 53.8643" stroke="black" stroke-width="1.15754" stroke-linecap="round" stroke-linejoin="round"/>
<path id="Vector_10" d="M36.5 55.3086V58.3893" stroke="black" stroke-width="1.15754" stroke-linecap="round" stroke-linejoin="round"/>
</g>
<g id="Group_4">
<path id="Vector_11" d="M55.2074 24.6797L52.2406 26.612L55.2074 28.5442" stroke="#7604CD" stroke-width="1.21678" stroke-linecap="round" stroke-linejoin="round"/>
<path id="Vector_12" d="M52.2406 26.6123H55.8408H62.3349" stroke="#7604CD" stroke-width="1.21678" stroke-linecap="round" stroke-linejoin="round"/>
</g>
<g id="Group_5">
<path id="Vector_13" d="M17.7925 24.6797L20.7592 26.612L17.7925 28.5442" stroke="#7604CD" stroke-width="1.21678" stroke-linecap="round" stroke-linejoin="round"/>
<path id="Vector_14" d="M20.7592 26.6123H17.159H10.6649" stroke="#7604CD" stroke-width="1.21678" stroke-linecap="round" stroke-linejoin="round"/>
</g>
</g>
</svg>
