<svg width="200" height="200" viewBox="0 0 200 200" fill="none" xmlns="http://www.w3.org/2000/svg">
<path d="M44.4561 154.376C43.6322 151.908 42.0532 150.09 40.1924 148.45C36.8546 145.506 34.1074 142.121 32.5707 137.873C31.5541 135.062 31.427 132.164 31.6769 129.218C32.1527 123.605 34.2583 118.507 36.6077 113.489C38.6327 109.164 39.6583 104.615 40.0136 99.8656C40.3316 95.6138 40.2982 91.3511 40.5709 87.1007C41.144 78.1688 42.1337 69.3099 45.1628 60.802C46.9639 55.7429 49.8641 51.3205 52.9819 47.014C60.1369 37.1311 69.89 31.2029 81.5913 28.2807C87.5487 26.793 93.6143 26.089 99.7537 26.3276C104.757 26.522 109.432 27.9063 113.576 30.8001C114.451 31.4116 115.43 31.3748 116.37 31.5171C123.113 32.5388 128.787 35.6637 133.647 40.3255C140.498 46.8963 144.632 54.9858 146.766 64.171C147.717 68.266 148.234 72.4016 148.33 76.6083C148.468 82.7287 148.09 88.8124 147.37 94.8857C146.914 98.7299 146.319 102.546 145.15 106.241C143.646 110.997 141.116 115.038 136.74 117.703C135.593 118.401 134.366 118.927 133.059 119.227C132.383 119.382 132.043 119.726 131.818 120.4C129.701 126.731 126.581 132.512 122.216 137.587C121.304 138.646 120.299 139.625 119.334 140.639C119.112 140.873 118.824 141.071 118.824 141.437C118.828 145.436 118.749 149.458 120.25 153.262C121.405 156.189 123.604 158.175 126.411 159.503C128.659 160.566 131.053 161.172 133.482 161.658C133.862 161.734 134.25 161.826 134.601 161.985C135.467 162.377 135.941 163.395 135.7 164.248C135.411 165.269 134.457 166.019 133.525 165.807C130.071 165.022 126.597 164.283 123.456 162.526C118.85 159.95 116.272 155.977 115.363 150.839C115.001 148.794 114.876 146.727 114.741 144.548C113.461 145.367 112.279 146.152 111.069 146.891C106.935 149.414 102.527 151.169 97.6516 151.559C94.9539 151.775 92.3462 151.261 89.7735 150.508C85.6385 149.297 81.8995 147.286 78.3594 144.871C78.0665 144.671 77.7657 144.483 77.385 144.235C77.1048 145.67 77.1793 147.057 77.0552 148.42C76.3225 156.467 72.0179 161.877 64.3215 164.312C62.4589 164.901 60.5683 165.363 58.6515 165.728C57.3538 165.976 56.2937 165.358 56.0351 164.192C55.7658 162.977 56.4196 161.986 57.8208 161.775C60.1153 161.429 62.3385 160.881 64.4832 159.986C69.8316 157.755 72.563 153.713 73.0148 147.979C73.1737 145.962 73.1622 143.951 73.2113 141.937C73.2261 141.332 73.0353 140.892 72.5807 140.492C66.4051 135.065 62.4629 128.263 60.2863 120.392C60.0782 119.639 59.7117 119.305 58.9307 119.119C54.9214 118.165 51.9405 115.784 50.1661 112.104C47.7354 107.062 47.0826 101.76 48.9105 96.3915C50.0617 93.0107 52.6435 90.9803 56.124 90.1771C56.8966 89.9989 57.1694 89.6876 57.1885 88.8764C57.2676 85.5289 57.4187 82.183 57.5623 78.8373C57.6163 77.5803 58.3978 76.7987 59.6641 76.7014C64.9956 76.2918 70.2058 75.237 75.3377 73.7658C83.7664 71.3495 91.645 67.8074 98.5625 62.3282C103.094 58.7389 107.038 54.6303 109.732 49.4424C110.178 48.584 110.906 48.2499 111.841 48.3856C112.772 48.5209 113.375 49.0342 113.556 49.9925C114.008 52.3898 114.526 54.7738 115.493 57.0245C118.185 63.2935 122.663 68.068 128.48 71.4208C132.235 73.5849 134.245 76.6101 135.021 80.6916C135.539 83.412 135.709 86.1665 135.774 88.9258C135.791 89.6636 135.952 90.0795 136.696 90.3866C139.223 91.4297 141.099 93.2293 142.398 95.6322C142.595 95.9963 142.787 96.363 143.044 96.8482C143.521 94.7239 143.685 92.6898 143.838 90.6728C144.131 86.7857 144.442 82.885 144.42 78.9919C144.363 69.1828 142.452 59.8099 137.252 51.3122C133.931 45.886 129.703 41.3844 124.062 38.3051C120.788 36.518 117.32 35.4141 113.585 35.2226C112.961 35.1907 112.454 34.9337 111.976 34.5934C107.657 31.5168 102.823 30.2661 97.5541 30.3178C88.854 30.403 80.5056 31.9809 72.6056 35.7353C65.4905 39.1168 59.9177 44.2122 55.3396 50.5826C50.1269 57.8362 47.1666 65.893 45.9339 74.6734C45.1653 80.1483 44.598 85.6319 44.5029 91.1669C44.4175 96.1379 44.2137 101.108 43.2347 106.006C42.433 110.017 41.0232 113.816 39.2519 117.493C37.6366 120.847 36.4106 124.328 35.8562 128.03C35.0647 133.317 35.9849 138.113 39.6771 142.2C41.0537 143.724 42.4776 145.19 43.9882 146.579C48.282 150.528 49.5398 155.514 48.8642 161.129C48.7217 162.313 47.6025 163.114 46.4906 162.929C45.2804 162.728 44.4315 161.516 44.7406 160.215C45.2069 158.253 45.0376 156.351 44.4561 154.376ZM105.995 61.1709C104.934 62.2753 103.781 63.2794 102.602 64.2544C95.2423 70.3407 86.8447 74.442 77.7545 77.2013C72.7701 78.7144 67.7014 79.8456 62.5076 80.3548C61.7426 80.4298 61.3509 80.7296 61.3787 81.5857C61.4305 83.178 61.2421 84.7726 61.2312 86.3605C61.198 91.1743 61.0992 95.9877 61.3377 100.804C61.6115 106.332 62.2208 111.798 63.5354 117.183C65.4 124.821 68.7967 131.574 74.7431 136.884C79.2198 140.881 84.0793 144.267 89.7712 146.334C92.3694 147.278 95.0285 147.819 97.8025 147.55C101.875 147.155 105.534 145.574 108.978 143.471C119.567 137.005 125.983 127.487 129.035 115.617C130.953 108.154 131.513 100.506 131.618 92.8233C131.671 88.9231 131.731 85.0237 130.996 81.1583C130.508 78.5939 129.431 76.4959 127.001 75.2607C126.308 74.9083 125.665 74.4526 125.018 74.0159C118.445 69.578 113.379 63.9474 110.96 56.2249C110.916 56.0862 110.897 55.8942 110.632 55.8816C109.232 57.6881 107.694 59.4084 105.995 61.1709ZM57.1626 94.2954C56.9738 93.7055 56.5909 94.0439 56.3066 94.1474C53.9647 94.9996 52.7876 96.8477 52.2395 99.136C51.756 101.155 51.9419 103.212 52.2283 105.242C52.6841 108.474 53.7579 111.426 56.3381 113.621C57.0473 114.225 57.7977 114.778 58.8969 114.996C57.6983 108.11 57.2344 101.292 57.1626 94.2954ZM138.552 109.151C139.329 107.243 139.76 105.247 139.942 103.207C140.129 101.105 139.934 99.0394 138.78 97.1934C138.044 96.0143 137.117 95.015 135.667 94.3477C135.382 101.36 134.677 108.135 133.345 115.04C135.937 113.696 137.432 111.686 138.552 109.151Z" fill="#FB718F"/>
<path d="M183.103 74.9052C184.852 76.3254 186.819 77.1628 188.872 77.8321C189.502 78.0376 190.092 78.3192 190.401 78.9546C190.942 80.065 190.448 81.2418 189.185 81.6628C187.387 82.2616 185.632 82.9253 184.082 84.0467C180.74 86.4654 179.023 89.9001 178.02 93.7716C177.816 94.5612 177.448 95.1437 176.628 95.3604C175.369 95.6936 174.368 95.1515 173.972 93.8927C173.601 92.7156 173.295 91.5204 172.817 90.3761C171.084 86.2219 168.096 83.4416 163.805 82.0628C163.311 81.904 162.817 81.7335 162.345 81.5188C161.499 81.1333 161.188 80.4339 161.264 79.529C161.335 78.6829 161.802 78.1503 162.58 77.8918C163.35 77.636 164.147 77.4567 164.91 77.1807C169.28 75.5983 171.925 72.4066 173.336 68.0799C173.548 67.4315 173.72 66.7702 173.938 66.124C174.255 65.1826 175.073 64.5843 175.977 64.6007C176.951 64.6184 177.654 65.1461 177.946 66.1819C178.604 68.5128 179.435 70.7549 180.952 72.6894C181.578 73.4877 182.285 74.1999 183.103 74.9052ZM181.446 78.6233C179.1 77.0369 177.412 74.847 175.904 72.3103C174.175 75.6132 171.757 78.0033 168.631 79.8664C171.878 81.7906 174.256 84.3462 176.03 87.6868C177.792 84.3018 180.107 81.7245 183.315 79.8704C182.638 79.4199 182.1 79.0618 181.446 78.6233Z" fill="#FB718F"/>
<path d="M152.203 119.833C152.294 118.424 152.582 117.955 153.83 117.701C158.992 116.647 161.867 113.251 163.436 108.476C163.537 108.167 163.663 107.866 163.754 107.555C164.035 106.584 164.697 106.076 165.684 106.077C166.688 106.078 167.29 106.671 167.599 107.595C167.919 108.549 168.215 109.513 168.57 110.454C169.971 114.172 172.669 116.452 176.459 117.504C176.866 117.617 177.271 117.734 177.67 117.871C178.506 118.158 178.958 118.773 178.942 119.637C178.926 120.488 178.494 121.1 177.642 121.385C176.842 121.653 176.038 121.919 175.265 122.254C171.733 123.783 169.528 126.519 168.25 130.073C168.009 130.745 167.828 131.438 167.613 132.119C167.293 133.132 166.466 133.829 165.594 133.827C164.747 133.826 163.938 133.098 163.623 132.062C163.406 131.348 163.21 130.625 162.955 129.925C161.42 125.72 158.451 123.027 154.222 121.666C153.306 121.371 152.427 121.015 152.203 119.833ZM167.595 123.169C168.664 121.893 169.92 120.825 171.46 119.847C168.914 118.247 166.988 116.235 165.573 113.523C164.16 116.189 162.276 118.201 159.659 119.77C162.263 121.439 164.139 123.533 165.606 126.118C166.272 125.027 166.793 124.085 167.595 123.169Z" fill="#FB718F"/>
<path d="M18.9138 55.1321C17.0547 55.613 15.9564 54.7932 15.9542 52.9777C15.9465 46.5371 15.9337 40.0964 15.953 33.6559C15.9654 29.5345 19.4559 25.9637 23.5783 25.9218C28.9745 25.867 34.3716 25.9056 39.7683 25.8963C40.5807 25.8949 41.3928 25.8426 42.2054 25.83C43.626 25.8081 44.5946 26.6336 44.5873 27.8455C44.5799 29.0636 43.6369 29.9365 42.2554 29.9375C36.4004 29.9421 30.5433 30.021 24.6911 29.8899C21.3254 29.8145 19.9162 32.1193 19.9549 34.6283C20.0502 40.8072 19.9799 46.9886 20.006 53.1688C20.0097 54.0369 19.7748 54.6934 18.9138 55.1321Z" fill="#FB718F"/>
<path d="M174.416 53.0465C174.415 46.7391 174.416 40.5219 174.415 34.3047C174.414 31.5529 172.815 29.9233 170.061 29.9191C164.364 29.9104 158.668 29.9147 152.972 29.9419C151.991 29.9466 151.257 29.63 150.815 28.7446C150.184 27.4826 150.913 26.0875 152.313 25.892C152.827 25.8202 153.351 25.7938 153.87 25.793C158.946 25.7858 164.022 25.8047 169.097 25.7815C171.857 25.7689 174.404 26.247 176.36 28.4332C177.696 29.9268 178.446 31.6471 178.451 33.6508C178.466 40.0307 178.451 46.4107 178.464 52.7906C178.466 53.5805 178.316 54.2914 177.7 54.8126C177.148 55.2787 176.494 55.4905 175.791 55.1962C174.893 54.8201 174.446 54.1096 174.416 53.0465Z" fill="#FB718F"/>
<path d="M177.797 147.269C177.795 152.863 177.812 158.361 177.785 163.858C177.765 167.762 175.358 170.961 171.715 172.011C171.123 172.182 170.524 172.33 169.897 172.33C164.27 172.332 158.643 172.345 153.015 172.338C151.645 172.336 150.889 171.545 150.913 170.221C150.935 168.989 151.7 168.301 153.105 168.299C158.277 168.294 163.453 168.193 168.62 168.347C171.442 168.431 173.784 166.346 173.705 163.169C173.559 157.287 173.721 151.397 173.77 145.51C173.781 144.266 174.58 143.499 175.786 143.49C176.98 143.481 177.75 144.247 177.796 145.513C177.815 146.065 177.798 146.619 177.797 147.269Z" fill="#FB718F"/>
<path d="M21.1241 143.553C21.7228 143.933 22.0042 144.42 22.0461 145.047C22.085 145.63 22.1559 146.214 22.1563 146.797C22.1599 152.394 22.1504 157.991 22.1469 163.587C22.1452 166.342 23.9639 168.154 26.7239 168.154C32.1581 168.152 37.5923 168.147 43.0265 168.152C44.3658 168.153 45.1885 168.833 45.2574 169.953C45.3445 171.371 44.6321 172.18 43.2009 172.183C37.4088 172.196 31.6162 172.231 25.8248 172.168C21.6793 172.122 18.1829 168.474 18.1739 164.311C18.1603 158.064 18.1646 151.816 18.1651 145.568C18.1652 143.69 19.1717 142.979 21.1241 143.553Z" fill="#FB718F"/>
<path d="M104.837 130.253C98.0851 133.544 91.6093 133.217 85.3683 129.121C84.8286 128.767 84.3276 128.336 83.8671 127.882C82.9501 126.978 82.923 125.895 83.7421 125.029C84.5246 124.202 85.6667 124.149 86.6316 124.973C88.3949 126.478 90.3744 127.548 92.6375 128.062C97.3115 129.123 101.524 128.119 105.268 125.154C105.975 124.595 106.68 124.251 107.592 124.543C109.001 124.995 109.458 126.724 108.395 127.758C107.366 128.76 106.189 129.573 104.837 130.253Z" fill="#FB718F"/>
<path d="M85.2172 86.8277C85.8144 87.2304 86.3759 87.5661 86.8729 87.9792C87.7677 88.7228 87.9016 89.8639 87.2525 90.7632C86.6105 91.6527 85.4959 91.8489 84.4976 91.1639C82.8617 90.0414 81.1031 89.3023 79.116 89.0636C76.2923 88.7245 73.7858 89.447 71.5372 91.1447C70.7662 91.7268 69.9382 91.8929 69.0858 91.4088C68.302 90.9637 68.011 90.224 68.1181 89.335C68.1932 88.711 68.5602 88.2579 69.0431 87.9027C71.8361 85.8486 74.971 84.9159 78.4335 85.0269C80.8128 85.1032 83.0415 85.7167 85.2172 86.8277Z" fill="#FB718F"/>
<path d="M122.809 87.942C124.395 89.4114 123.361 91.2317 121.974 91.5539C121.205 91.7325 120.661 91.3362 120.102 90.9434C116.484 88.4022 111.861 88.2685 108.165 90.6057C107.891 90.779 107.64 90.9893 107.368 91.1666C106.385 91.8081 105.242 91.6549 104.567 90.7983C103.844 89.8818 103.97 88.7419 104.936 87.9468C106.874 86.3508 109.158 85.485 111.604 85.1659C115.648 84.6384 119.433 85.3725 122.809 87.942Z" fill="#FB718F"/>
<path d="M82.1736 104.502C78.2209 105.454 74.5557 104.959 71.1258 102.895C70.8207 102.712 70.5191 102.513 70.2477 102.284C69.294 101.478 69.1038 100.454 69.713 99.5208C70.2976 98.6251 71.3822 98.4011 72.4669 98.9718C73.0705 99.2894 73.6386 99.6797 74.2564 99.964C77.4301 101.424 80.543 101.331 83.5745 99.5392C83.8534 99.3744 84.1303 99.193 84.4312 99.0812C85.3491 98.7402 86.3042 99.0807 86.806 99.8965C87.3491 100.779 87.2746 101.667 86.4898 102.362C85.2731 103.441 83.7773 104 82.1736 104.502Z" fill="#FB718F"/>
<path d="M105.136 100.537C105.871 98.9914 106.935 98.648 108.337 99.458C112.057 101.607 115.695 101.479 119.257 99.0847C120.427 98.2983 121.573 98.4206 122.267 99.4065C123.005 100.457 122.776 101.607 121.542 102.41C116.855 105.46 111.967 105.846 106.923 103.357C105.828 102.816 104.766 102.15 105.136 100.537Z" fill="#FB718F"/>
<path d="M100.304 118.508C96.4872 120.225 92.9069 119.951 89.525 117.581C89.024 117.23 88.521 116.833 88.4166 116.157C88.2895 115.335 88.4193 114.578 89.1362 114.062C89.8698 113.533 90.6592 113.545 91.4306 113.994C91.8797 114.255 92.2854 114.594 92.7432 114.837C95.0822 116.077 97.3215 115.77 99.4605 114.334C100.009 113.965 100.549 113.578 101.243 113.677C102.112 113.8 102.758 114.239 103.01 115.134C103.248 115.978 103.004 116.676 102.347 117.227C101.746 117.73 101.072 118.127 100.304 118.508Z" fill="#FB718F"/>
</svg>
