<svg width="73" height="74" viewBox="0 0 73 74" fill="none" xmlns="http://www.w3.org/2000/svg">
<path d="M54.9021 38.372C50.4268 44.0549 43.8598 47.6369 36.5409 47.6369C29.222 47.6369 22.6595 44.0549 18.1843 38.372C22.655 32.6891 29.222 29.1025 36.5409 29.1025C43.8598 29.1025 50.4268 32.6891 54.9021 38.372Z" fill="white"/>
<path d="M18.1843 38.372C22.655 32.6891 29.222 29.1025 36.5409 29.1025C43.8598 29.1025 50.4268 32.6891 54.9021 38.372" fill="white"/>
<path d="M53.0519 40.3957C53.3937 40.0403 53.8905 39.4615 54.2642 39.0149C54.5786 38.6366 54.5695 38.0898 54.2551 37.7161C49.8163 32.4205 43.4954 29.1074 36.4909 29.1074C29.4773 29.1074 23.161 32.4205 18.7176 37.7206C18.3986 38.0989 18.3986 38.6503 18.7176 39.0331C19.3602 39.7987 20.0393 40.5233 20.7547 41.1978L21.7391 42.05C21.7391 42.05 20.7456 39.5845 21.3882 38.6457C21.9624 37.8026 26.4194 31.386 36.5319 31.386C43.819 31.386 48.0572 34.7903 50.5272 36.7682C51.6984 37.7069 52.578 38.9647 53.0519 40.3957Z" fill="#FCDDD6"/>
<path d="M27.4675 37.925C27.4675 40.2447 28.3425 42.3638 29.7872 43.9862C31.5144 45.923 34.0528 47.1489 36.8874 47.1489C42.0872 47.1489 46.3072 43.02 46.3072 37.925C46.3072 32.83 42.0917 28.7012 36.8874 28.7012C31.6875 28.7012 27.4675 32.83 27.4675 37.925Z" fill="#CF9FF4"/>
<path d="M36.8828 42.0315C39.1203 42.0315 40.9342 40.1931 40.9342 37.9254C40.9342 35.6577 39.1203 33.8193 36.8828 33.8193C34.6453 33.8193 32.8314 35.6577 32.8314 37.9254C32.8314 40.1931 34.6453 42.0315 36.8828 42.0315Z" fill="black"/>
<path d="M35.6881 37.6561C36.6471 37.1024 36.8768 35.7046 36.201 34.5341C35.5252 33.3636 34.1999 32.8636 33.2408 33.4173C32.2817 33.971 32.0521 35.3688 32.7279 36.5393C33.4037 37.7098 34.729 38.2098 35.6881 37.6561Z" fill="white"/>
<path d="M53.1157 40.3957C53.4575 40.0448 53.9543 39.4615 54.3325 39.0149C54.6515 38.6366 54.6424 38.0898 54.3234 37.7161C50.787 33.5143 46.0611 30.5566 40.7474 29.5221C39.3665 29.2487 37.9401 29.1074 36.4909 29.1074C35.4974 29.1074 34.5131 29.1712 33.5469 29.3034C27.6909 30.0872 22.4774 33.1679 18.6493 37.7206C18.3257 38.0989 18.3257 38.6503 18.6493 39.0331C19.2919 39.7942 19.9754 40.5233 20.6909 41.1978L21.6799 42.05" stroke="black" stroke-width="1.21678" stroke-linecap="round" stroke-linejoin="round"/>
<path d="M16.3433 35.2867C21.6616 29.3805 28.9486 26.0127 36.4908 26.0127C44.0331 26.0127 51.3383 29.3896 56.6566 35.3095" stroke="#7604CD" stroke-width="1.21678" stroke-linecap="round" stroke-linejoin="round"/>
</svg>
