<svg width="73" height="74" viewBox="0 0 73 74" fill="none" xmlns="http://www.w3.org/2000/svg">
<g id="Group">
<path id="Vector" d="M18.4988 60.9484H54.5056C45.3911 60.9484 42.8072 53.7844 42.8072 49.6784C46.4666 46.7708 48.2075 41.8991 48.2075 40.2403C48.2075 40.2403 51.8077 38.8321 51.8077 34.84C51.8077 33.4272 51.0968 32.6343 50.1762 32.3791V28.7652C50.1762 27.7033 50.1762 26.6871 49.8208 25.2379C49.119 22.3714 47.4464 19.7874 45.0174 18.0556C42.8482 16.5107 40.1731 15.6357 36.4999 15.6357C32.8268 15.6357 30.1563 16.5107 27.9825 18.0556C25.5534 19.7874 23.8809 22.3668 23.1791 25.2379C22.8236 26.6916 22.8236 27.7033 22.8236 28.7652V32.3791C21.9031 32.6297 21.1922 33.4272 21.1922 34.84C21.1922 38.8367 24.7924 40.2403 24.7924 40.2403C24.7924 41.8946 26.5332 46.7663 30.1927 49.6784C30.1927 53.7844 27.6088 60.9484 18.4943 60.9484H18.4988Z" fill="white"/>
<path id="Vector_2" d="M50.3631 32.3789C50.3039 27.1381 48.8182 23.1505 45.9381 20.5255C42.0052 16.9435 36.9238 17.217 36.4772 17.2534C33.3464 17.2534 30.9447 17.9324 28.9213 19.3771C26.8569 20.8445 25.3758 23.0639 24.7514 25.6251C24.4415 26.8874 24.4415 27.7624 24.4415 28.7741V32.5749L25.5353 32.2604C31.0359 30.6699 32.6218 24.0984 32.7585 23.588L33.3509 21.797C34.0209 23.228 35.306 25.9851 37.7487 26.8008C39.0976 27.252 40.1959 27.5664 41.1712 27.849C42.8346 28.3275 44.0422 28.6784 45.0722 29.2982L47.0637 31.0345L48.5585 32.7617V32.9987L50.3723 32.9486V32.388L50.3631 32.3789Z" fill="#CF9FF4"/>
<g id="Group_2">
<path id="Vector_3" d="M32.8997 44.7018C34.9732 46.2194 38.0448 46.2057 40.1001 44.6699" stroke="black" stroke-width="1.21678" stroke-linecap="round" stroke-linejoin="round"/>
<path id="Vector_4" d="M42.807 49.6836C42.807 53.7897 45.391 60.9537 54.5055 60.9537" stroke="black" stroke-width="1.21678" stroke-linecap="round" stroke-linejoin="round"/>
<path id="Vector_5" d="M30.1973 49.6836C30.1973 53.7897 27.6134 60.9537 18.4989 60.9537" stroke="black" stroke-width="1.21678" stroke-linecap="round" stroke-linejoin="round"/>
<path id="Vector_6" d="M39.5533 35.6061C40.2369 36.4401 41.2304 36.914 42.2695 36.9004C43.3085 36.8867 44.2883 36.3854 44.9537 35.5332" stroke="black" stroke-width="1.21678" stroke-linecap="round" stroke-linejoin="round"/>
<path id="Vector_7" d="M33.4465 35.6061C32.7629 36.4401 31.7694 36.914 30.7304 36.9004C29.6913 36.8867 28.7115 36.3854 28.0461 35.5332" stroke="black" stroke-width="1.21678" stroke-linecap="round" stroke-linejoin="round"/>
<path id="Vector_8" d="M33.4467 20.667C33.4467 20.667 33.4604 25.2242 38.0176 26.7418C43.9603 28.7242 45.6145 28.2594 48.6497 32.4156C50.1672 31.969 51.7987 32.7027 51.7987 34.8446C51.7987 38.8413 48.1985 40.2449 48.1985 40.2449C48.1985 42.6648 44.4843 51.9479 36.4955 51.9479C28.5066 51.9479 24.7925 42.6648 24.7925 40.2449C24.7925 40.2449 21.1923 38.8367 21.1923 34.8446C21.1923 32.7072 22.8238 31.9735 24.3413 32.4156C30.4207 31.299 31.9382 25.2242 31.9382 25.2242" stroke="black" stroke-width="1.21678" stroke-linecap="round" stroke-linejoin="round"/>
<path id="Vector_9" d="M50.1716 31.9738V28.7701C50.1716 27.7082 50.1716 26.6919 49.8161 25.2427C49.1143 22.3762 47.4418 19.7923 45.0128 18.0605C42.8435 16.5156 40.1684 15.6406 36.4953 15.6406C32.8221 15.6406 30.1516 16.5156 27.9778 18.0605C25.5488 19.7923 23.8763 22.3717 23.1744 25.2427C22.819 26.6965 22.819 27.7082 22.819 28.7701V31.9738" stroke="black" stroke-width="1.21678" stroke-linecap="round" stroke-linejoin="round"/>
</g>
<g id="Group_3">
<path id="Vector_10" d="M46.7036 52.869C47.6105 52.0624 48.4582 51.1282 49.2283 50.0755C50.7277 48.0338 51.908 45.5729 52.4685 43.4492" stroke="#7604CD" stroke-width="1.21678" stroke-linecap="round" stroke-linejoin="round"/>
<path id="Vector_11" d="M53.0289 46.721C52.9788 44.57 52.6416 42.9111 52.6416 42.9111C51.6982 44.0823 50.0166 45.3493 50.0166 45.3493" stroke="#7604CD" stroke-width="1.21678" stroke-linecap="round" stroke-linejoin="round"/>
</g>
<g id="Group_4">
<path id="Vector_12" d="M20.504 43.4443C21.06 45.568 22.2449 48.0289 23.7442 50.0706C24.519 51.1233 25.362 52.0575 26.2689 52.8642" stroke="#7604CD" stroke-width="1.21678" stroke-linecap="round" stroke-linejoin="round"/>
<path id="Vector_13" d="M19.9435 46.721C19.9936 44.57 20.3308 42.9111 20.3308 42.9111C21.2742 44.0823 22.9558 45.3493 22.9558 45.3493" stroke="#7604CD" stroke-width="1.21678" stroke-linecap="round" stroke-linejoin="round"/>
</g>
</g>
</svg>
