<svg width="73" height="74" viewBox="0 0 73 74" fill="none" xmlns="http://www.w3.org/2000/svg">
<g id="Group">
<path id="Vector" d="M36.4579 62.3543C50.3008 62.3543 61.5228 51.1324 61.5228 37.2895C61.5228 23.4465 50.3008 12.2246 36.4579 12.2246C22.615 12.2246 11.3931 23.4465 11.3931 37.2895C11.3931 51.1324 22.615 62.3543 36.4579 62.3543Z" fill="#FCDDD6"/>
<path id="Vector_2" d="M18.7348 55.0131C9.01418 45.2925 9.01418 29.2874 18.7348 19.5668C28.4554 9.84622 44.4604 9.84622 54.181 19.5668C42.3641 31.3838 30.5517 43.1961 18.7348 55.0131Z" fill="white"/>
<path id="Vector_3" d="M55.0014 44.3404C56.3354 44.3404 57.4167 43.4427 57.4167 42.3352C57.4167 41.2278 56.3354 40.3301 55.0014 40.3301C53.6674 40.3301 52.5861 41.2278 52.5861 42.3352C52.5861 43.4427 53.6674 44.3404 55.0014 44.3404Z" fill="#CF9FF4"/>
<path id="Vector_4" d="M42.2047 24.3654C42.15 26.1928 41.2841 28.5535 39.3792 29.4285C39.0556 29.5743 38.1214 30.0027 37.2555 29.6336C36.0023 29.1004 35.5283 27.1863 35.7881 25.769C36.0342 24.4064 36.7816 24.4611 36.8773 23.2124C36.9866 21.7769 36.0524 21.0249 36.5355 19.8446C36.6084 19.6714 36.7952 19.2294 37.2373 18.965C38.2855 18.3316 39.8076 19.2704 39.9716 19.3706C41.676 20.4234 42.2594 22.702 42.2092 24.3654H42.2047Z" fill="#CF9FF4"/>
<path id="Vector_5" d="M16.5155 24.4797C16.6477 26.4894 17.7733 28.4125 19.3501 29.2465C19.701 29.4334 20.3254 29.7478 21.0591 29.5974C21.8566 29.4334 22.5357 28.768 22.8091 28.0434C23.4015 26.4666 21.6515 25.6372 21.5877 23.1535C21.5376 21.1711 22.6131 20.3189 22.0298 19.5624C21.4237 18.7785 19.6509 18.897 18.4934 19.5852C16.3241 20.8749 16.4882 24.0513 16.5201 24.4797H16.5155Z" fill="#CF9FF4"/>
<g id="Clip path group">
<mask id="mask0_29_265" style="mask-type:luminance" maskUnits="userSpaceOnUse" x="0" y="0" width="73" height="74">
<g id="clippath">
<path id="Vector_6" d="M0 0.832031H72.9159L0 73.748V0.832031Z" fill="white"/>
</g>
</mask>
<g mask="url(#mask0_29_265)">
<g id="Group_2">
<path id="Vector_7" d="M37.7294 18.4322C37.0549 18.4322 36.5536 18.6327 36.2209 19.0338C35.6331 19.7584 35.8518 20.8111 36.0614 21.8319L36.1116 22.0689L35.8655 22.0826C33.9924 22.1783 32.3382 20.8339 31.7184 20.2551L31.6455 20.1913V12.722C31.6455 12.3574 31.3492 12.0566 30.9847 12.0566C30.6201 12.0566 30.3148 12.3574 30.3148 12.722V38.6026C30.3148 38.9672 30.6155 39.2679 30.9847 39.2679C31.3538 39.2679 31.6455 38.9672 31.6455 38.6026V21.9367L31.9736 22.1509C33.2177 22.9986 34.4664 23.427 35.6786 23.427C35.6969 23.427 35.706 23.427 35.7242 23.427C35.747 23.427 35.7789 23.427 35.8017 23.4178L36.2756 23.4087L35.9612 23.7688C34.1656 25.7922 33.1767 28.3853 33.1767 31.0695V50.4059C33.1767 50.6656 33.1585 50.9299 33.1175 51.2489L33.0673 51.6545L32.7666 51.3766C31.8414 50.5107 30.2054 50.0504 29.0615 50.0504C27.9176 50.0504 26.8239 50.5107 25.8988 51.3766L25.6026 51.6545L25.5479 51.2489C25.5114 50.9345 25.4932 50.6656 25.4932 50.4059V31.0695C25.4932 28.5539 24.6638 26.1795 23.1006 24.2154L22.8591 23.91L23.2465 23.8781C24.7412 23.7551 25.9671 23.3723 26.7373 23.0761L27.0199 22.9667V38.6026C27.0199 38.9672 27.3206 39.2679 27.6852 39.2679C28.0498 39.2679 28.3506 38.9672 28.3506 38.6026V12.7266C28.3506 12.3574 28.0498 12.0612 27.6852 12.0612C27.3206 12.0612 27.0199 12.3574 27.0199 12.7266V21.5129L26.9014 21.5676C26.3089 21.841 24.723 22.4836 22.7224 22.5748L22.4626 22.5884L22.5082 22.3287C22.5401 22.1555 22.5766 21.9823 22.6039 21.8502C22.8181 20.8202 23.0368 19.7584 22.4444 19.0338C22.1208 18.6282 21.6104 18.4322 20.9405 18.4322C17.8233 18.4322 15.964 20.524 15.964 24.0376C15.964 27.5513 17.9601 30.1899 20.7126 30.1899C21.1638 30.1899 21.574 30.0851 21.9294 29.8891C22.2849 29.6932 22.5766 29.4061 22.8044 29.0324C22.9821 28.7225 23.1143 28.3488 23.2009 27.884L23.3422 27.1138L23.6065 27.8566C23.9711 28.9048 24.1579 29.9894 24.1579 31.074V50.4104C24.1579 51.29 24.3083 52.1604 24.5954 53.0171L24.6228 53.0992L24.5863 53.1767C24.0759 54.2066 23.8025 55.3778 23.8025 56.5718C23.8025 58.9416 24.8369 61.129 26.5049 62.2729C27.0062 62.6193 27.3024 63.1935 27.3024 63.8087V64.1004C27.3024 65.0665 28.0908 65.8504 29.057 65.8504C30.0231 65.8504 31.3538 65.0619 31.3538 64.1004V63.8087C31.3538 63.1935 31.6546 62.6193 32.1513 62.2729C33.8193 61.129 34.8538 58.9461 34.8538 56.5718C34.8538 55.3778 34.5849 54.202 34.0699 53.1767L34.0335 53.0992L34.0608 53.0171C34.3479 52.1649 34.4937 51.29 34.4937 50.4104V31.074C34.4937 29.994 34.6806 28.9048 35.0497 27.8566L35.3095 27.1138L35.4508 27.884C35.5374 28.3488 35.665 28.7225 35.8518 29.0324C36.2984 29.7752 37.0367 30.1899 37.939 30.1899C40.6916 30.1899 42.6877 27.6014 42.6877 24.0376C42.6877 20.4739 40.8283 18.4322 37.7112 18.4322H37.7294ZM21.6651 28.3534C21.46 28.6997 21.1638 28.8546 20.7263 28.8546C18.3793 28.8546 17.3084 26.3573 17.3084 24.0376C17.3084 21.2805 18.6026 19.7629 20.9542 19.7629C21.0909 19.7629 21.1866 19.7766 21.2413 19.7857L21.4418 19.8997C21.574 20.1321 21.4965 20.6698 21.3142 21.5676C21.2094 22.0689 21.1 22.6386 21.1 23.1626L21.0818 23.2538C21.0818 23.2538 21.1046 23.2948 21.1046 23.3222C21.1228 23.5774 21.1729 23.7961 21.255 23.9966C21.2732 24.0604 21.2777 24.0832 21.2914 24.1151L21.3142 24.1789C21.9522 25.341 22.2439 27.3872 21.6651 28.3579V28.3534ZM31.4131 61.1701C30.5517 61.7671 30.0368 62.7469 30.0368 63.8042V64.0958C30.0368 64.3146 29.3076 64.4786 29.0706 64.4786C28.8337 64.4786 28.6468 64.3146 28.6468 64.0958V63.8042C28.6468 62.7469 28.1364 61.7671 27.2751 61.1701C25.9626 60.2723 25.1468 58.5086 25.1468 56.5673C25.1468 56.1343 25.197 55.6923 25.3063 55.1773L25.4066 54.717L26.1084 53.1949L26.1768 53.0946C26.9333 51.9918 27.9632 51.3902 29.0706 51.3902C30.178 51.3902 31.7503 51.9918 32.5113 53.0946L32.5843 53.1949L33.2815 54.717L33.3818 55.1773C33.4912 55.6923 33.5413 56.1343 33.5413 56.5673C33.5413 58.5041 32.7301 60.2723 31.4176 61.1701H31.4131ZM37.9573 28.8546C37.5152 28.8546 37.2144 28.6951 37.0139 28.3534C36.4397 27.3827 36.7268 25.3365 37.3739 24.1607C37.3739 24.1607 37.383 24.1333 37.3922 24.1105C37.4013 24.0878 37.4104 24.0604 37.4149 24.0331C37.702 23.3358 37.5653 22.511 37.3739 21.5813C37.1597 20.5331 37.1187 20.1139 37.2281 19.9225L37.2554 19.8678L37.3056 19.8404C37.3557 19.8176 37.4742 19.7675 37.7294 19.7675C40.0809 19.7675 41.3752 21.2805 41.3752 24.0422C41.3752 26.3664 40.3042 28.8592 37.9573 28.8592V28.8546Z" fill="black"/>
</g>
</g>
</g>
<g id="Clip path group_2">
<mask id="mask1_29_265" style="mask-type:luminance" maskUnits="userSpaceOnUse" x="0" y="0" width="73" height="74">
<g id="clippath-1">
<path id="Vector_8" d="M72.9159 73.748H0L72.9159 0.832031V73.748Z" fill="white"/>
</g>
</mask>
<g mask="url(#mask1_29_265)">
<g id="Group_3">
<g id="Group_4">
<path id="Vector_9" d="M49.1043 37.3669C49.0268 37.4854 48.9448 37.5628 48.9311 37.5765C48.047 38.6566 43.9865 43.7698 42.3094 49.284C42.2 49.6486 43.2619 58.3211 40.7918 62.3269C40.5868 62.6596 36.7313 62.6869 36.5946 62.3269C33.8056 55.1173 35.4872 49.4982 35.3778 49.1246C33.4911 42.9267 28.8154 37.4489 28.7562 37.3669C28.5602 37.0889 28.4918 36.7562 28.5693 36.4326C28.5693 36.4326 28.6741 35.9997 29.1481 35.6442C34.3023 31.8207 39.1193 31.8799 39.1193 31.8799C39.1193 31.8799 43.5171 31.9346 48.7123 35.6442C48.8673 35.7536 49.2182 36.0134 49.3002 36.4326C49.3595 36.7243 49.2865 37.0889 49.1043 37.3669Z" fill="#CF9FF4"/>
<path id="Vector_10" d="M45.5497 42.0976C45.2124 41.9472 44.816 42.0885 44.6565 42.4212C42.8882 46.1399 40.678 49.0884 41.2841 51.6906C41.4071 52.2739 41.4937 52.8664 41.5439 53.4588L41.5621 53.6821L41.6396 55.0128V55.2133C41.6532 55.8969 41.6305 56.0018 41.5758 56.6854L41.5621 56.8722L41.4026 57.6287L41.3661 57.8657C41.2704 58.4399 41.1565 58.408 41.0198 58.9457L40.9833 59.1007L40.5868 60.436L40.4911 60.7094C40.3635 61.074 40.2314 61.4067 40.0901 61.7439C40.0217 61.9079 40.0172 62.0902 40.081 62.2543C40.1448 62.4184 40.2724 62.5505 40.441 62.6189C40.6005 62.6918 40.7919 62.6918 40.9514 62.6189C41.1155 62.5505 41.2431 62.4229 41.316 62.2543C42.9657 58.2439 43.4078 55.6326 42.5784 51.3762C42.0679 49.1659 44.2235 46.4862 45.8778 43.0045C46.0419 42.6627 45.8915 42.2526 45.5451 42.0976H45.5497ZM62.6713 34.5052C62.2976 33.4115 61.5638 32.459 60.6023 31.8165L60.5704 31.8028C59.3809 31.06 56.9838 30.2123 54.3042 32.933C51.1141 36.1641 49.9611 35.5306 49.1043 35.6172L49.0041 35.6263L48.9357 35.558C47.1721 33.7533 44.9481 32.4499 42.51 31.7891C40.0764 31.1283 37.5016 31.1283 35.0589 31.7891C32.6299 32.4545 30.4014 33.7578 28.6423 35.5625L28.5694 35.6309L28.4782 35.6218C27.626 35.5443 25.311 35.0065 22.1027 31.7481C19.4184 29.0274 17.0213 29.8705 15.8319 30.6225C14.8612 31.2559 14.1138 32.2175 13.7356 33.3249C13.3619 34.4278 13.3619 35.6491 13.7538 36.7565C14.3371 38.4518 15.7909 40.8489 19.3592 42.6308L19.4367 42.6764L19.464 42.7584C19.6463 43.4739 20.0747 44.1028 20.6671 44.5357C21.255 44.9732 21.9842 45.1965 22.7133 45.1692C24.5499 45.1692 26.0356 43.8567 26.0356 42.2389C26.0356 40.6211 24.5499 39.3131 22.7224 39.3131C22.0981 39.2949 21.4874 39.459 20.9542 39.7689C20.421 40.0787 19.9835 40.5345 19.6873 41.0768L19.5871 41.2545L19.4093 41.1588C17.1991 39.9284 15.6815 38.2558 15.0116 36.319C14.7199 35.5078 14.7108 34.6009 14.9842 33.7806C15.2577 32.9558 15.8137 32.2357 16.5383 31.7618C17.1216 31.3926 17.6958 31.2149 18.2746 31.2149C19.2225 31.2149 20.1795 31.7071 21.1547 32.696C24.5772 36.1732 27.1475 36.8568 28.378 36.957L28.4828 36.9707L28.5375 37.0573C28.8155 37.5267 35.984 47.1972 35.0042 51.3853C34.1748 55.6372 34.6077 58.253 36.2711 62.2634C36.3349 62.432 36.4671 62.5642 36.6312 62.628C36.7952 62.6964 36.9821 62.6964 37.1461 62.628C37.3056 62.5642 37.4332 62.4275 37.5016 62.2634C37.5654 62.0994 37.5654 61.9125 37.4879 61.753C35.9658 58.0024 35.5511 55.6782 36.2939 51.7088C37.3147 47.3248 31.4222 39.3314 29.7634 36.5423L29.6859 36.4056L29.7998 36.2962C32.2197 33.9356 35.4144 32.6413 38.7867 32.6413C42.1591 32.6413 45.3583 33.9356 47.7782 36.2962C48.1017 36.6563 48.5438 36.8932 49.0269 36.9616L49.1043 36.9753L49.2092 36.9616C50.4396 36.8613 51.8296 37.3581 55.2521 33.8809C56.8197 32.2859 58.3328 31.976 59.864 32.9421C60.5931 33.4252 61.1491 34.1407 61.4226 34.961C61.696 35.7858 61.6869 36.6882 61.3998 37.5085C60.7253 39.4453 59.8731 40.2884 58.1778 41.1634L58.0001 41.2682C58.0001 41.2682 57.0066 41.5826 56.8152 42.5169C56.6739 43.1868 56.0131 43.7154 55.1791 43.8248L54.8601 43.8521C53.7664 43.8521 52.8732 43.1321 52.8732 42.2525C52.8732 41.5097 53.5021 40.8899 54.3452 40.7076C54.6459 40.6438 54.8556 40.3704 54.8556 40.0605C54.8556 39.6412 54.4682 39.3177 54.0581 39.4043C52.6134 39.7233 51.547 40.8808 51.547 42.248C51.547 43.8612 53.0327 45.1738 54.8601 45.1738C55.5984 45.2057 56.3276 44.9778 56.9155 44.5403C57.5033 44.1074 57.9363 43.4784 58.1186 42.7675L58.1459 42.6809L58.2279 42.6399C61.1628 41.0449 62.0651 39.6321 62.6576 37.9368C63.0404 36.834 63.0495 35.6172 62.6713 34.5098V34.5052ZM22.727 40.6438C23.8207 40.6438 24.714 41.3593 24.714 42.2434C24.714 43.1276 23.8207 43.843 22.727 43.843C21.6333 43.843 20.74 43.123 20.74 42.2434C20.74 41.3639 21.6333 40.6438 22.727 40.6438Z" fill="black"/>
</g>
</g>
</g>
</g>
<path id="Vector_11" d="M18.7349 55.013L54.0672 19.6807" stroke="black" stroke-width="1.37173" stroke-linecap="round" stroke-linejoin="round"/>
</g>
</svg>
