<svg width="73" height="73" viewBox="0 0 73 73" fill="none" xmlns="http://www.w3.org/2000/svg">
<path d="M59.0356 48.0928C54.966 56.4325 46.4029 62.1838 36.4955 62.1838C26.588 62.1838 18.0249 56.4325 13.9553 48.0928H30.047C30.9402 48.0928 31.5007 49.0771 31.0176 49.8245C30.4617 50.695 30.1335 51.7295 30.1335 52.8414C30.1335 56.0224 32.7859 58.5836 35.9987 58.4332C38.9427 58.2964 41.3216 55.8036 41.3352 52.8642C41.3444 51.7522 41.0254 50.7177 40.4694 49.8473C39.9817 49.0863 40.5241 48.0928 41.4218 48.0928H59.031H59.0356Z" fill="#FCDDD6"/>
<path d="M61.1637 47.7549H42.561C41.2303 47.7549 40.3872 49.1129 40.9068 50.3388C41.2121 51.0634 41.367 51.861 41.3397 52.7041C41.2394 55.5933 38.8514 57.9905 35.9622 58.0998C32.7675 58.2229 30.1426 55.6708 30.1426 52.5035C30.1426 51.7197 30.3021 50.9769 30.5937 50.3024C31.1132 49.0993 30.2337 47.7594 28.9258 47.7594H11.8315" stroke="black" stroke-width="1.31249" stroke-linecap="round" stroke-linejoin="round"/>
<path d="M38.6191 50.7175C38.0494 49.3184 37.8124 47.8054 37.8307 46.2969C37.858 44.1231 38.0768 41.7078 38.6327 39.1238C40.8886 28.6103 47.2277 21.9977 50.0395 19.3955C47.1548 21.387 42.4563 25.2014 38.733 31.4904C34.9915 37.8159 33.8157 43.9682 33.4831 48.2201C33.401 49.2409 33.1777 50.2389 32.8952 51.2233C32.8405 51.4193 32.7995 51.6243 32.7767 51.834C32.5625 53.7116 33.7565 55.3841 35.4381 55.5755C37.1197 55.7669 38.6555 54.3997 38.8652 52.5221C38.9381 51.8796 38.8469 51.2598 38.6236 50.7175H38.6191Z" fill="#CF9FF4" stroke="black" stroke-width="1.45832" stroke-linecap="round" stroke-linejoin="round"/>
<path d="M48.3077 37.597C47.173 38.121 46.699 39.274 46.2296 41.6301C45.6691 38.8229 45.104 37.8795 43.4224 37.319C45.1085 36.7584 45.6691 35.8151 46.2296 33.0078C46.6215 34.9811 47.018 36.2252 47.8019 36.7584C48.1346 36.9817 48.5356 37.1503 49.0369 37.319C48.768 37.4101 48.5265 37.4967 48.3077 37.6015V37.597Z" fill="#7604CD" stroke="#7604CD" stroke-width="1.27603" stroke-linecap="round" stroke-linejoin="round"/>
<path d="M28.1374 40.6048C27.0027 41.1289 26.5287 42.2818 26.0593 44.6379C25.4988 41.8307 24.9337 40.8873 23.2521 40.3268C24.9383 39.7662 25.4988 38.8229 26.0593 36.0156C26.4513 37.9889 26.8477 39.233 27.6316 39.7662C27.9643 39.9895 28.3653 40.1582 28.8666 40.3268C28.5977 40.4179 28.3562 40.5045 28.1374 40.6093V40.6048Z" fill="#7604CD" stroke="#7604CD" stroke-width="1.27603" stroke-linecap="round" stroke-linejoin="round"/>
<path d="M34.4857 23.8206C33.351 24.3447 32.877 25.4977 32.4076 27.8538C31.8471 25.0465 31.282 24.1031 29.6003 23.5426C31.2865 22.9821 31.8471 22.0387 32.4076 19.2314C32.7995 21.2047 33.196 22.4489 33.9799 22.9821C34.3125 23.2054 34.7136 23.374 35.2149 23.5426C34.946 23.6337 34.7045 23.7203 34.4857 23.8251V23.8206Z" fill="#7604CD" stroke="#7604CD" stroke-width="1.27603" stroke-linecap="round" stroke-linejoin="round"/>
</svg>
