<svg width="73" height="74" viewBox="0 0 73 74" fill="none" xmlns="http://www.w3.org/2000/svg">
<g id="Group">
<g id="Group_2">
<path id="Vector" d="M61.5228 37.2895C61.5228 49.3297 53.0281 59.3921 41.7033 61.7983C40.0126 62.1583 38.2535 62.3543 36.458 62.3543C34.6624 62.3543 33.0081 62.1766 31.3675 61.8348C31.3083 61.8211 31.2445 61.8074 31.1852 61.7983C30.8343 61.7208 30.4743 61.6388 30.1234 61.5477C29.9867 61.5158 29.85 61.4748 29.7132 61.4383C28.8701 61.2013 28.0407 60.9279 27.2386 60.6043C26.9971 60.5086 26.7556 60.4129 26.5186 60.3081C24.2309 59.3192 22.1117 57.9976 20.2387 56.4025L19.865 56.079C14.6698 51.4853 11.3885 44.7679 11.3885 37.2895C11.3885 29.811 14.6561 23.1164 19.8331 18.5273C21.9386 16.6542 24.363 15.1367 27.0153 14.0566C27.029 14.0475 27.0472 14.043 27.0609 14.0384C27.3754 13.9108 27.6898 13.7923 28.0088 13.6784C28.0225 13.6784 28.0271 13.6693 28.0407 13.6693C28.8018 13.3958 29.5811 13.1588 30.3786 12.9629C30.5882 12.9128 30.7933 12.8626 31.0029 12.817C31.2581 12.7578 31.5133 12.7122 31.7686 12.6621C31.9326 12.6302 32.0967 12.6029 32.2607 12.5755C33.6233 12.3431 35.027 12.2246 36.458 12.2246C38.6591 12.2246 40.7965 12.5072 42.8335 13.0404C53.5886 15.8613 61.5228 25.6503 61.5228 37.2895Z" fill="#FCDDD6"/>
<path id="Vector_2" d="M48.4846 40.4885L41.6669 64.4641C39.9488 64.8333 38.7138 65.0247 36.8864 65.0247C35.0589 65.0247 33.2588 64.8287 31.5362 64.4596C31.0303 64.3548 30.5336 64.2317 30.046 64.095C28.934 63.7851 27.8448 63.4023 26.8012 62.9466C24.4724 61.944 22.326 60.5996 20.4211 58.9818L20.0474 58.6537L20.0701 58.5853L25.2107 41.245C26.0447 38.2828 26.0082 35.1428 25.1013 32.2034L19.3364 16.1437C21.4738 14.2433 23.9392 12.6984 26.6326 11.6047C26.6462 11.5956 26.6645 11.591 26.6781 11.5864C27.7628 11.1444 28.8884 10.7798 30.046 10.4927C30.5108 10.3742 30.9802 10.274 31.4496 10.1828C32.9899 9.89114 34.585 9.74075 36.2119 9.74075C38.4495 9.74075 43.4579 9.65873 45.5224 10.201L48.3889 31.9619C49.1909 34.7418 49.2228 37.6858 48.4891 40.4794L48.4846 40.4885Z" fill="white"/>
<path id="Vector_3" d="M43.3257 38.9163C43.1024 40.165 42.2137 41.1585 41.1291 41.3863C40.7053 41.4729 40.2906 41.4501 39.9078 41.3317C38.5953 40.9261 37.1689 41.0081 35.8381 41.359C35.4963 41.4501 35.1318 41.4638 34.7581 41.3954C33.6689 41.1904 32.762 40.2014 32.525 38.9528C32.1331 36.8792 33.4957 35.0381 35.2184 35.0381C35.4234 35.0381 35.6194 35.0654 35.8108 35.111C37.1962 35.4619 38.65 35.4574 40.0354 35.111C40.2222 35.0654 40.4182 35.0381 40.6187 35.0381C42.3413 35.0381 43.6857 36.8564 43.3211 38.9117L43.3257 38.9163Z" fill="#CF9FF4" stroke="black" stroke-width="1.44009" stroke-linecap="round" stroke-linejoin="round"/>
<path id="Vector_4" d="M41.9766 35.4073C41.5574 35.9952 40.6687 36.2276 39.7026 36.255C39.0737 36.2732 38.7455 35.9588 38.2078 35.6306C37.4194 35.1521 36.7267 35.658 36.3393 35.9952C35.4461 36.7654 34.8537 37.2074 33.4455 37.1527C32.4657 37.1163 31.7183 36.4919 31.5405 35.5304C31.2899 34.1951 32.1193 32.9965 33.3042 32.6593H33.3133C33.7462 32.5408 34.006 32.1079 33.8693 31.6841L28.0223 13.6829C28.0223 13.6829 28.0406 13.6738 28.0542 13.6738C28.8153 13.4004 29.5946 13.1634 30.3921 12.9674C30.6017 12.9173 30.8068 12.8672 31.0165 12.8216C31.2717 12.7624 31.5269 12.7168 31.7821 12.6667C31.9461 12.6348 32.1102 12.6074 32.2742 12.5801L37.67 31.2648C38.0027 32.0942 38.8731 32.2947 39.5339 32.2811C39.9304 32.2719 40.2859 32.281 40.5958 32.3585C41.612 32.6046 42.0632 33.2563 42.2136 34.1677C42.3002 34.7009 42.2136 35.1111 41.9857 35.4164L41.9766 35.4073Z" fill="#FCDDD6"/>
<path id="Vector_5" d="M20.1656 18.3906L25.0966 32.2082C26.0035 35.1476 26.0399 38.2876 25.206 41.2498L20.2386 56.4026" stroke="black" stroke-width="1.45832" stroke-linecap="round" stroke-linejoin="round"/>
<path id="Vector_6" d="M41.1838 42.2524C41.0334 43.255 40.523 43.656 39.5295 43.8657C39.2242 43.9295 38.6682 43.9158 38.3857 43.8748C37.6747 43.77 36.8134 44.3806 36.5901 45.0688L31.3675 61.8349C31.3083 61.8212 31.2445 61.8075 31.1852 61.7984C30.8343 61.7209 30.4743 61.6389 30.1234 61.5478C29.9867 61.5159 29.85 61.4749 29.7132 61.4384C28.8701 61.2014 28.0407 60.928 27.2386 60.6044L32.4339 45.3741C32.6299 44.7635 32.4157 44.0708 31.8688 43.7244C31.1761 43.2869 30.7158 42.5167 30.7158 41.6372C30.7158 41.5506 30.7158 41.4686 30.7295 41.382C30.8252 40.1925 31.5863 39.272 32.7301 39.1945C32.9443 39.1763 33.1722 39.1945 33.4046 39.2401C34.3434 39.4315 34.7171 40.0923 35.3961 40.7667C35.6513 41.0219 36.2255 41.1906 36.704 41.0766H36.7132C36.859 41.0447 36.9957 40.99 37.1142 40.9035C37.2965 40.7758 37.5426 40.6665 37.8206 40.5845C38.4586 40.393 38.2444 40.6665 38.7639 40.6027C38.9371 40.5844 39.0966 40.5708 39.2333 40.5617C40.0263 40.5161 40.3635 40.5708 40.7463 41.0083C41.0152 41.3227 41.2522 41.7784 41.1793 42.2524H41.1838Z" fill="#FCDDD6"/>
<path id="Vector_7" d="M28.0179 13.6787L33.8649 31.6798C34.0016 32.1037 33.7373 32.5366 33.3043 32.6551H33.2952C32.1104 32.9923 31.2809 34.1909 31.5316 35.5261C31.7093 36.4923 32.4567 37.1485 33.4365 37.1485C34.8994 37.1485 35.5146 36.8569 36.3304 35.991C36.6813 35.6173 37.4104 35.1479 38.1988 35.6264C38.7366 35.9545 39.6571 36.1459 40.286 36.1277C40.9423 36.1095 41.5347 35.836 41.9677 35.4031C42.51 34.8608 42.8016 34.0678 42.6604 33.2156C42.5054 32.3042 41.8218 31.5477 40.9423 31.2742C40.637 31.1785 40.3453 31.1466 40.0673 31.1649C39.4065 31.2059 38.8004 30.8003 38.5953 30.1668L33.9925 13.8701" stroke="black" stroke-width="1.45832" stroke-linecap="round" stroke-linejoin="round"/>
<path id="Vector_8" d="M32.6345 61.9073L37.4606 45.9979C37.6839 45.3098 38.372 44.9087 39.083 45.0181C39.3655 45.0591 39.6617 45.0546 39.9671 44.9862C40.956 44.7766 41.749 43.9472 41.8993 42.9446C42.0133 42.1744 41.7763 41.4543 41.3206 40.9303C41.038 40.6021 40.6689 40.3515 40.2587 40.2148C39.9124 40.0917 39.5341 40.0461 39.1377 40.0917C38.568 40.1601 38.2171 40.3241 37.8206 40.5885C37.6976 40.675 37.57 40.7662 37.4241 40.871C37.2282 41.0169 36.9684 41.0806 36.7132 41.0806H36.7041C36.3031 41.0806 35.9111 40.9348 35.7061 40.7343C35.0316 40.0598 34.6533 39.7226 33.7145 39.5312C33.3727 39.4628 33.0401 39.4674 32.7256 39.5221C31.6592 39.7271 30.8389 40.2831 30.725 41.3814C30.7159 41.4635 30.7113 41.55 30.7113 41.6366C30.7113 42.5162 31.1716 43.2864 31.8643 43.7239C32.4112 44.0702 32.6254 44.7584 32.4294 45.3736L27.1521 60.85" stroke="black" stroke-width="1.45832" stroke-linecap="round" stroke-linejoin="round"/>
<path id="Vector_9" d="M47.3587 24.3555L48.8034 33.7069C49.2728 36.2772 49.1999 38.9113 48.5892 41.4497L45.6498 51.6124" stroke="black" stroke-width="1.45832" stroke-linecap="round" stroke-linejoin="round"/>
</g>
</g>
</svg>
