<svg width="73" height="74" viewBox="0 0 73 74" fill="none" xmlns="http://www.w3.org/2000/svg">
<g id="Group">
<g id="Group_2">
<path id="Vector" d="M17.5099 34.4619C20.1257 41.512 26.0638 47.4865 36.4999 47.4865C46.936 47.4865 52.8741 41.512 55.49 34.4619C55.49 34.4619 50.2491 38.2125 45.4321 36.9866C44.0194 36.6266 43.035 36.3076 41.2258 36.4033C39.2479 36.5081 38.7831 37.6839 36.5045 37.6839H36.4954C34.2167 37.6839 33.7519 36.5081 31.7741 36.4033C29.9694 36.3076 28.985 36.6266 27.5677 36.9866C22.7553 38.2125 17.5099 34.4619 17.5099 34.4619Z" fill="#FCDDD6"/>
<path id="Vector_2" d="M19.4422 35.333C19.4422 35.333 22.6915 38.2314 27.4447 36.9644C28.8438 36.5908 29.8145 36.2626 31.6009 36.3629C33.556 36.4723 34.0117 37.689 36.2675 37.689H36.2766C38.5279 37.689 38.9882 36.4723 40.9433 36.3629C42.7297 36.2626 43.7004 36.5908 45.0995 36.9644C49.8572 38.2314 55.0343 34.3486 55.0343 34.3486C55.0343 34.3486 52.4093 34.6448 48.7681 33.0361C44.4387 31.1266 44.5845 29.7139 41.2577 29.7139C40.1776 29.7139 39.3163 30.3154 37.0423 32.2204C36.9055 32.3343 36.7415 32.4072 36.5683 32.4254C36.3723 32.4482 36.1718 32.4026 36.0032 32.2978C34.1256 31.1221 33.957 30.0785 32.0065 29.9509C29.7005 29.7959 27.8549 32.9176 23.5027 34.344C19.5971 35.6246 19.4376 35.333 19.4376 35.333H19.4422Z" fill="#CF9FF4"/>
<path id="Vector_3" d="M16.963 34.4632C16.963 34.4632 20.0392 34.3492 23.726 32.7998C24.7605 32.3623 25.599 31.8883 26.3054 31.4098C28.6022 29.8695 29.582 28.3519 31.7194 28.3565C32.845 28.3565 34.4902 28.7848 36.4954 30.9085" stroke="black" stroke-width="1.21678" stroke-linecap="round" stroke-linejoin="round"/>
<path id="Vector_4" d="M56.0369 34.4622C56.0369 34.4622 52.9607 34.3483 49.2739 32.7988C44.8898 30.9531 44.0741 28.3509 41.2805 28.3555C40.1549 28.3555 38.5097 28.7839 36.5045 30.9075" stroke="black" stroke-width="1.21678" stroke-linecap="round" stroke-linejoin="round"/>
<path id="Vector_5" d="M55.49 34.4619C55.49 34.4619 50.2491 38.2125 45.4321 36.9866C44.0194 36.6266 43.035 36.3076 41.2258 36.4033C39.2479 36.5081 38.7831 37.6839 36.5045 37.6839H36.4954C34.2167 37.6839 33.7519 36.5081 31.7741 36.4033C29.9694 36.3076 28.985 36.6266 27.5677 36.9866C22.7553 38.2125 17.5099 34.4619 17.5099 34.4619" stroke="black" stroke-width="1.21678" stroke-linecap="round" stroke-linejoin="round"/>
<path id="Vector_6" d="M20.5359 40.0536C19.2462 38.3492 18.2482 36.4489 17.5099 34.4619" stroke="black" stroke-width="1.21678" stroke-linecap="round" stroke-linejoin="round"/>
<path id="Vector_7" d="M55.4899 34.4619C52.8741 41.512 46.936 47.4865 36.4999 47.4865C34.5038 47.4865 32.6718 47.2678 30.9948 46.8622" stroke="black" stroke-width="1.21678" stroke-linecap="round" stroke-linejoin="round"/>
</g>
</g>
</svg>
