<svg width="73" height="74" viewBox="0 0 73 74" fill="none" xmlns="http://www.w3.org/2000/svg">
<g id="Group">
<path id="Vector" d="M36.5 54.414C45.9107 54.414 53.5395 46.7852 53.5395 37.3745C53.5395 27.9638 45.9107 20.335 36.5 20.335C27.0893 20.335 19.4604 27.9638 19.4604 37.3745C19.4604 46.7852 27.0893 54.414 36.5 54.414Z" fill="white"/>
<path id="Vector_2" d="M28.142 29.4947C26.6563 30.1783 26.0365 31.6913 25.4168 34.7766C24.6785 31.0943 23.9448 29.8593 21.7345 29.1256C23.9448 28.3873 24.6785 27.1569 25.4168 23.4746C25.9317 26.0586 26.4467 27.6901 27.4766 28.3919C27.9096 28.6881 28.4428 28.9068 29.0945 29.1302C28.739 29.2486 28.4245 29.3671 28.1374 29.4993L28.142 29.4947Z" fill="#7604CD" stroke="#7604CD" stroke-width="1.06184" stroke-linecap="round" stroke-linejoin="round"/>
<path id="Vector_3" d="M37.2291 54.1259C37.2291 54.1259 37.8671 53.0003 37.4068 51.9202C37.1562 51.3278 36.664 50.9814 36.2994 50.7627C32.567 48.5205 30.7988 47.6136 29.9466 46.0459C29.418 45.0798 29.4499 44.1228 29.4636 43.8448C29.5684 41.5206 31.6374 40.4587 34.039 38.3806C34.039 38.3806 39.8313 33.3677 42.7069 27.0194C42.9484 26.4862 43.5227 25.1874 43.5682 23.442C43.5865 22.7903 43.2948 17.4902 43.2492 17.1758C43.2492 17.1758 63.0505 17.4766 60.8174 44.1137C59.3226 61.9234 43.1353 64.1017 38.259 63.6916C33.3828 63.2814 37.2291 54.1259 37.2291 54.1259Z" fill="white"/>
<path id="Vector_4" d="M43.4771 21.9434C43.5226 22.2578 43.5865 22.7865 43.5682 23.4427C43.5227 25.1881 42.9484 26.4869 42.7069 27.0201C39.8313 33.3684 34.039 38.3813 34.039 38.3813C31.6419 40.4594 29.5684 41.5213 29.4635 43.8455C29.4499 44.1235 29.4225 45.0805 29.9466 46.0466C30.7988 47.6143 32.567 48.5212 36.2994 50.7634C36.664 50.9821 37.1516 51.3285 37.4068 51.9209C37.8671 53.0055 37.2291 54.1266 37.2291 54.1266" stroke="black" stroke-width="1.21678" stroke-linecap="round" stroke-linejoin="round"/>
<path id="Vector_5" d="M47.4191 44.5879C47.4191 44.5879 49.7296 47.4225 47.5786 49.3502C45.4276 51.2779 43.5409 50.7219 40.8339 48.7897C38.1588 46.8802 34.8912 46.5156 34.8684 47.1217C34.8593 47.3359 37.2291 47.9557 38.0266 47.6458" stroke="black" stroke-width="1.21678" stroke-linecap="round" stroke-linejoin="round"/>
</g>
</svg>
