<svg width="73" height="73" viewBox="0 0 73 73" fill="none" xmlns="http://www.w3.org/2000/svg">
<path d="M18.4943 60.0324H54.5011C45.3866 60.0324 42.8027 52.8684 42.8027 48.7623C46.4621 45.8548 48.203 40.9831 48.203 39.3243C48.203 39.3243 51.8032 37.9161 51.8032 33.9239C51.8032 32.5112 51.0923 31.7182 50.1717 31.463V27.8491C50.1717 26.7873 50.1717 25.771 49.8162 24.3218C49.1144 21.4553 47.4419 18.8714 45.0129 17.1396C42.8437 15.5947 40.1686 14.7197 36.4954 14.7197C32.8223 14.7197 30.1517 15.5947 27.9779 17.1396C25.5489 18.8714 23.8764 21.4508 23.1746 24.3218C22.8191 25.7756 22.8191 26.7873 22.8191 27.8491V31.463C21.8986 31.7137 21.1876 32.5112 21.1876 33.9239C21.1876 37.9207 24.7879 39.3243 24.7879 39.3243C24.7879 40.9786 26.5287 45.8503 30.1882 48.7623C30.1882 52.8684 27.6042 60.0324 18.4897 60.0324H18.4943Z" fill="white"/>
<path d="M50.3585 31.4629C50.2993 26.2221 48.8136 22.2345 45.9334 19.6095C42.0005 16.0275 36.9192 16.3009 36.4726 16.3374C33.3417 16.3374 30.9401 17.0164 28.9167 18.4611C26.8522 19.9285 25.3711 22.1479 24.7468 24.7091C24.4369 25.9714 24.4369 26.8464 24.4369 27.8581V31.6589L25.5306 31.3444C31.0312 29.7539 32.6171 23.1824 32.7539 22.672L33.3463 20.881C34.0162 22.3119 35.3014 25.0691 37.7441 25.8848C39.093 26.336 40.1913 26.6504 41.1665 26.933C42.8299 27.4115 44.0376 27.7624 45.0675 28.3822L47.0591 30.1185L48.5538 31.8457V32.0827L50.3676 32.0325V31.472L50.3585 31.4629Z" fill="#CF9FF4"/>
<path d="M32.8997 43.7858C34.9732 45.3034 38.0448 45.2897 40.1001 43.7539" stroke="black" stroke-width="1.21678" stroke-linecap="round" stroke-linejoin="round"/>
<path d="M42.8026 48.7676C42.8026 52.8737 45.3866 60.0377 54.5011 60.0377" stroke="black" stroke-width="1.21678" stroke-linecap="round" stroke-linejoin="round"/>
<path d="M30.1927 48.7676C30.1927 52.8737 27.6088 60.0377 18.4943 60.0377" stroke="black" stroke-width="1.21678" stroke-linecap="round" stroke-linejoin="round"/>
<path d="M39.5533 34.6901C40.2369 35.5241 41.2304 35.998 42.2695 35.9844C43.3085 35.9707 44.2883 35.4694 44.9537 34.6172" stroke="black" stroke-width="1.21678" stroke-linecap="round" stroke-linejoin="round"/>
<path d="M33.4466 34.6901C32.763 35.5241 31.7695 35.998 30.7305 35.9844C29.6914 35.9707 28.7116 35.4694 28.0463 34.6172" stroke="black" stroke-width="1.21678" stroke-linecap="round" stroke-linejoin="round"/>
<path d="M33.4466 19.751C33.4466 19.751 33.4602 24.3082 38.0175 25.8258C43.9601 27.8082 45.6144 27.3433 48.6495 31.4996C50.1671 31.0529 51.7986 31.7867 51.7986 33.9286C51.7986 37.9253 48.1984 39.3289 48.1984 39.3289C48.1984 41.7488 44.4842 51.0319 36.4954 51.0319C28.5065 51.0319 24.7924 41.7488 24.7924 39.3289C24.7924 39.3289 21.1921 37.9207 21.1921 33.9286C21.1921 31.7912 22.8236 31.0575 24.3412 31.4996C30.4206 30.383 31.9381 24.3082 31.9381 24.3082" stroke="black" stroke-width="1.21678" stroke-linecap="round" stroke-linejoin="round"/>
<path d="M50.1717 31.0578V27.854C50.1717 26.7922 50.1717 25.7759 49.8162 24.3267C49.1144 21.4602 47.4419 18.8763 45.0129 17.1445C42.8436 15.5996 40.1685 14.7246 36.4954 14.7246C32.8222 14.7246 30.1517 15.5996 27.9779 17.1445C25.5489 18.8763 23.8764 21.4557 23.1746 24.3267C22.8191 25.7805 22.8191 26.7922 22.8191 27.854V31.0578" stroke="black" stroke-width="1.21678" stroke-linecap="round" stroke-linejoin="round"/>
<path d="M22.4454 44.6341C21.3107 45.1581 20.8367 46.3111 20.3673 48.6672C19.8068 45.86 19.2417 44.9166 17.5601 44.3561C19.2462 43.7955 19.8068 42.8522 20.3673 40.0449C20.7592 42.0182 21.1557 43.2623 21.9396 43.7955C22.2723 44.0188 22.6733 44.1875 23.1746 44.3561C22.9057 44.4472 22.6642 44.5338 22.4454 44.6386V44.6341Z" fill="#7604CD" stroke="#7604CD" stroke-width="1.06184" stroke-linecap="round" stroke-linejoin="round"/>
<path d="M52.2362 51.9388C51.1014 52.4628 50.6275 53.6158 50.1581 55.9719C49.5976 53.1646 49.0325 52.2213 47.3508 51.6608C49.037 51.1002 49.5976 50.1569 50.1581 47.3496C50.55 49.3229 50.9465 50.567 51.7304 51.1002C52.063 51.3235 52.4641 51.4921 52.9654 51.6608C52.6965 51.7519 52.4549 51.8385 52.2362 51.9433V51.9388Z" fill="#7604CD" stroke="#7604CD" stroke-width="1.06184" stroke-linecap="round" stroke-linejoin="round"/>
<path d="M44.735 24.386C43.6002 24.9101 43.1263 26.0631 42.6569 28.4192C42.0963 25.6119 41.5312 24.6686 39.8496 24.108C41.5358 23.5475 42.0963 22.6041 42.6569 19.7969C43.0488 21.7702 43.4453 23.0143 44.2291 23.5475C44.5618 23.7708 44.9628 23.9394 45.4641 24.108C45.1953 24.1992 44.9537 24.2858 44.735 24.3906V24.386Z" fill="#7604CD" stroke="#7604CD" stroke-width="1.06184" stroke-linecap="round" stroke-linejoin="round"/>
<path d="M30.9634 42.7909C32.0532 42.1617 32.3144 40.5737 31.5467 39.2441C30.7791 37.9145 29.2733 37.3467 28.1834 37.9759C27.0936 38.6051 26.8324 40.1931 27.6 41.5227C28.3677 42.8523 29.8735 43.4201 30.9634 42.7909Z" fill="#FCDDD6"/>
<path d="M45.3612 41.5215C46.1288 40.1919 45.8676 38.604 44.7778 37.9747C43.6879 37.3455 42.1821 37.9133 41.4145 39.2429C40.6468 40.5725 40.908 42.1605 41.9979 42.7897C43.0877 43.4189 44.5935 42.8512 45.3612 41.5215Z" fill="#FCDDD6"/>
</svg>
