<svg width="73" height="73" viewBox="0 0 73 73" fill="none" xmlns="http://www.w3.org/2000/svg">
<path d="M51.7293 26.2226C52.4312 26.2727 52.9735 26.856 52.9598 27.5578C52.6864 42.6241 47.646 52.6637 36.458 56.624C25.27 52.6637 20.2297 42.6241 19.9562 27.5578C19.9471 27.3755 19.9881 27.2024 20.0474 27.0383C20.2388 26.5826 20.6672 26.2636 21.1867 26.2226C29.3806 25.6529 34.9906 19.5644 36.458 17.0215C37.9254 19.5644 43.5354 25.6529 51.7293 26.2226ZM44.6428 38.8871V36.4126C44.6428 35.729 44.0914 35.173 43.4033 35.173H38.9326V30.7023C38.9326 30.0187 38.3812 29.4628 37.693 29.4628H35.2184C34.5348 29.4628 33.9789 30.0142 33.9789 30.7023V35.173H29.5082C28.8246 35.173 28.2686 35.7244 28.2686 36.4126V38.8871C28.2686 39.5707 28.8201 40.1267 29.5082 40.1267H33.9789V44.5974C33.9789 45.281 34.5303 45.8369 35.2184 45.8369H37.693C38.3766 45.8369 38.9326 45.2855 38.9326 44.5974V40.1267H43.4033C44.0868 40.1267 44.6428 39.5753 44.6428 38.8871Z" fill="#FCDDD6"/>
<path d="M44.6429 36.4127V38.8873C44.6429 39.5709 44.0914 40.1268 43.4033 40.1268H38.9326V44.5975C38.9326 45.2811 38.3812 45.8371 37.6931 45.8371H35.2185C34.5349 45.8371 33.9789 45.2857 33.9789 44.5975V40.1268H29.5082C28.8247 40.1268 28.2687 39.5754 28.2687 38.8873V36.4127C28.2687 35.7291 28.8201 35.1731 29.5082 35.1731H33.9789V30.7025C33.9789 30.0189 34.5303 29.4629 35.2185 29.4629H37.6931C38.3767 29.4629 38.9326 30.0143 38.9326 30.7025V35.1731H43.4033C44.0869 35.1731 44.6429 35.7245 44.6429 36.4127Z" fill="white"/>
<path d="M36.458 17.0264C37.9254 19.5693 43.5354 25.6578 51.7293 26.2274C52.4312 26.2776 52.9735 26.8609 52.9598 27.5627C52.6864 42.629 47.646 52.6686 36.458 56.6288C25.27 52.6686 20.2297 42.629 19.9562 27.5627C19.9471 27.3804 19.9881 27.2072 20.0474 27.0432C20.2388 26.5875 20.6672 26.2684 21.1867 26.2274C29.3806 25.6578 34.9906 19.5693 36.458 17.0264Z" stroke="black" stroke-width="1.45832" stroke-linecap="round" stroke-linejoin="round"/>
<path d="M33.9834 35.1731V30.7025C33.9834 30.0189 34.5348 29.4629 35.223 29.4629H37.6976C38.3812 29.4629 38.9371 30.0143 38.9371 30.7025V35.1731H43.4078C44.0914 35.1731 44.6474 35.7245 44.6474 36.4127V38.8873C44.6474 39.5709 44.0959 40.1268 43.4078 40.1268H38.9371V44.5975C38.9371 45.2811 38.3857 45.8371 37.6976 45.8371H35.223C34.5394 45.8371 33.9834 45.2857 33.9834 44.5975V40.1268H29.5128C28.8292 40.1268 28.2732 39.5754 28.2732 38.8873V36.4127C28.2732 35.7291 28.8246 35.1731 29.5128 35.1731H33.9834Z" stroke="black" stroke-width="1.45832" stroke-linecap="round" stroke-linejoin="round"/>
</svg>
