<svg width="73" height="73" viewBox="0 0 73 73" fill="none" xmlns="http://www.w3.org/2000/svg">
<path d="M61.5648 36.4581C61.5648 37.2966 61.5238 38.1169 61.4418 38.9327C61.4281 39.0876 61.4098 39.2334 61.3916 39.3793C61.2412 40.6826 60.986 41.9541 60.6442 43.1891C57.7048 53.7665 48.0116 61.5229 36.5 61.5229C24.2729 61.5229 14.092 52.7685 11.8772 41.1839C11.7632 40.5915 11.6766 39.9899 11.6037 39.3793C11.5855 39.2334 11.5718 39.0831 11.5536 38.9327C11.4716 38.1124 11.4305 37.2921 11.4305 36.4535C11.4305 36.2895 11.4305 36.1208 11.4397 35.9568C11.4488 35.3188 11.4852 34.6853 11.549 34.061C12.7521 21.3371 23.4617 11.3887 36.5 11.3887C49.5382 11.3887 60.2432 21.3417 61.4463 34.061C61.5101 34.6853 61.542 35.3188 61.5557 35.9568C61.5648 36.1208 61.5648 36.2895 61.5648 36.4535V36.4581Z" fill="#FCDDD6"/>
<path d="M61.8519 33.9381H56.6248C56.0734 33.9381 55.408 33.6191 54.6515 33.1679C54.3325 32.9765 53.9953 32.7669 53.6535 32.5481C51.6802 31.2995 49.2284 29.75 45.733 29.75C39.7311 29.75 34.9414 34.4759 34.7454 34.6673C34.7044 34.7037 31.1908 38.1308 27.2943 38.1308C25.2573 38.1308 23.7078 37.1464 22.0626 36.1119C20.8686 35.3554 19.6336 34.5716 18.2209 34.1888C17.6512 34.0338 17.0497 33.9381 16.4025 33.9381H11.1754C11.0979 34.7356 11.0569 35.5468 11.0569 36.3671C11.0569 37.1874 11.0979 38.0533 11.1799 38.8827H16.398C16.9494 38.8827 17.6148 39.2017 18.3758 39.6529C18.6903 39.8443 19.0275 40.0539 19.3693 40.2727C21.3426 41.5214 23.7944 43.0708 27.2898 43.0708C33.2917 43.0708 38.0813 38.345 38.2773 38.1536C38.3183 38.1217 41.832 34.6946 45.7284 34.6946C47.7655 34.6946 49.315 35.6744 50.9601 36.7089C52.1541 37.4654 53.3891 38.2493 54.8064 38.6321C55.3761 38.7916 55.9776 38.8827 56.6202 38.8827H61.8383L61.8474 33.9381H61.8519Z" fill="#FCDDD6"/>
<path d="M43.8007 22.5039L45.7329 25.4752L47.6652 22.5039" stroke="#7604CD" stroke-width="1.21678" stroke-linecap="round" stroke-linejoin="round"/>
<path d="M45.7329 25.4752V21.8749V15.3809" stroke="#7604CD" stroke-width="1.21678" stroke-linecap="round" stroke-linejoin="round"/>
<path d="M61.7927 39.3378C61.6423 40.664 61.3826 41.9537 61.0317 43.2069C60.1111 43.1796 59.0402 43.1204 57.8553 43.0019C50.2766 42.259 50.4133 38.7682 45.5051 38.7682C40.1276 38.7682 37.4251 45.2486 27.5359 45.2486C20.3583 45.2486 17.5464 41.1699 15.8694 41.1699H11.5081C11.3942 40.5683 11.303 39.9576 11.2301 39.3378H16.398C16.9495 39.3378 17.6148 39.6933 18.3759 40.1946C18.6903 40.4088 19.0275 40.6412 19.3693 40.8828C21.3381 42.2636 23.7944 43.1659 27.2853 43.1659C33.2872 43.1659 38.0768 38.7454 38.2728 38.5312C38.3138 38.4948 41.8275 34.9629 45.7239 34.9629C47.761 34.9629 49.3104 35.7741 50.9556 36.9316C52.1496 37.7656 53.3846 38.6406 54.8019 39.0599C55.3716 39.2376 55.9731 39.3378 56.6157 39.3378H61.7836H61.7927Z" fill="#CF9FF4"/>
<path d="M62.7953 33.414V37.7434H56.3514C55.7042 37.7434 55.1072 37.6523 54.5376 37.4928C53.1203 37.1145 51.8853 36.3261 50.6913 35.5696C49.0461 34.5351 47.4966 33.5507 45.4596 33.5507C41.5631 33.5507 38.0495 36.9778 38.0085 37.0097C37.8125 37.2056 33.0228 41.927 27.0209 41.927C23.5255 41.927 21.0737 40.3775 19.105 39.1288C18.7632 38.9146 18.426 38.705 18.1115 38.509C17.3459 38.0579 16.6851 37.7388 16.1337 37.7388H9.73987V33.4095H16.1337C16.6122 33.4095 17.0725 33.4733 17.5601 33.61C18.7176 33.9199 19.7795 34.5852 20.9006 35.2916L20.9826 35.3417C22.7326 36.4491 24.5464 37.5976 27.0209 37.5976C31.0176 37.5976 34.4492 34.7174 35.4655 33.7695L35.4837 33.7513L35.543 33.692C35.7253 33.5097 40.0866 29.2168 45.455 29.2168C48.522 29.2168 50.6639 30.5749 52.5597 31.778C52.9152 31.9967 53.257 32.2155 53.5942 32.4205C54.4556 32.931 55.3852 33.4049 56.3468 33.4049H62.7908L62.7953 33.414Z" fill="white"/>
<path d="M63.0231 39.4293H56.6293C55.9822 39.4293 55.3806 39.3382 54.811 39.1787C53.3937 38.8004 52.1632 38.012 50.9646 37.2601C49.324 36.221 47.77 35.2412 45.7375 35.2412C41.841 35.2412 38.3274 38.6683 38.2864 38.7002C38.095 38.8916 33.3008 43.6174 27.2989 43.6174C23.8035 43.6174 21.3471 42.068 19.3784 40.8193C19.0366 40.6005 18.6993 40.3909 18.3803 40.1995C17.6193 39.7483 16.9539 39.4293 16.4025 39.4293H10.0087" stroke="black" stroke-width="1.09374" stroke-linecap="round" stroke-linejoin="round"/>
<path d="M30.1471 51.1412L28.2149 48.1699L26.2826 51.1412" stroke="#7604CD" stroke-width="1.21678" stroke-linecap="round" stroke-linejoin="round"/>
<path d="M28.2148 48.1699V51.7701V58.2642" stroke="#7604CD" stroke-width="1.21678" stroke-linecap="round" stroke-linejoin="round"/>
<path d="M10.0087 33.3043H16.4025C17.0496 33.3043 17.6512 33.3955 18.2208 33.555C19.6381 33.9332 20.8686 34.7216 22.0671 35.4736C23.7077 36.5126 25.2618 37.4924 27.2943 37.4924C31.1907 37.4924 34.7044 34.0654 34.7454 34.0335C34.9368 33.8421 39.731 29.1162 45.7329 29.1162C49.2283 29.1162 51.6847 30.6657 53.6534 31.9144C53.9952 32.1331 54.3324 32.3427 54.6514 32.5341C55.4125 32.9853 56.0779 33.3043 56.6293 33.3043H63.0231" stroke="black" stroke-width="1.09374" stroke-linecap="round" stroke-linejoin="round"/>
</svg>
