<svg width="400" height="100" viewBox="0 0 400 100" fill="none" xmlns="http://www.w3.org/2000/svg">
<path d="M42.2409 70.9332C42.2409 73.6427 42.2409 76.2229 42.2409 78.893C39.9253 78.893 37.6882 78.893 35.2595 78.893C35.2595 78.4083 35.2595 77.9077 35.2596 77.4072C35.2602 65.2988 35.2642 53.1904 35.2597 41.082C35.2579 36.4195 31.1101 32.6045 25.7718 32.3353C20.2748 32.0581 15.577 35.3932 14.949 40.0404C14.8395 40.8504 14.7861 41.6705 14.7854 42.4859C14.7748 54.0772 14.7779 65.6685 14.7776 77.2598C14.7776 77.7738 14.7776 78.2877 14.7776 78.8925C12.5264 78.8925 10.3418 78.8925 8.00036 78.8925C8.00036 78.4565 8.00036 78.0397 8.00036 77.6229C8.00044 65.5576 7.99913 53.4923 8.00106 41.4271C8.00247 32.6946 15.6502 26.2782 25.8537 26.4447C34.4031 26.5842 41.7468 32.6885 42.0886 40.3023C42.3705 46.5839 42.2144 52.88 42.2382 59.1696C42.2528 63.0477 42.2409 66.9258 42.2409 70.9332Z" fill="#FB718F"/>
<path d="M69.8314 72.6819C69.8314 74.7962 69.8314 76.8097 69.8314 78.8933C67.5158 78.8933 65.2787 78.8933 62.85 78.8933C62.85 78.5151 62.85 78.1244 62.8501 77.7338C62.8507 68.2851 62.8547 58.8364 62.8502 49.3876C62.8484 45.7492 58.7006 42.7722 53.3623 42.5622C47.8653 42.3459 43.1675 44.9484 42.5395 48.5748C42.43 49.2069 42.3766 49.8468 42.3759 50.4832C42.3653 59.5284 42.3684 68.5736 42.3681 77.6188C42.3681 78.0199 42.3681 78.421 42.3681 78.8929C40.1169 78.8929 37.9323 78.8929 35.5909 78.8929C35.5909 78.5526 35.5909 78.2274 35.5909 77.9022C35.5909 68.4871 35.5896 59.072 35.5916 49.6569C35.593 42.8425 43.2407 37.8355 53.4442 37.9654C61.9936 38.0743 69.3373 42.8378 69.6791 48.7792C69.961 53.681 69.8049 58.5941 69.8287 63.5022C69.8433 66.5284 69.8314 69.5547 69.8314 72.6819Z" fill="#FB718F"/>
<path d="M21.9602 43.0399C22.1204 39.7654 28.5858 39.7385 28.5942 43.0169C28.6244 54.8423 28.6153 66.6678 28.6146 78.4933C28.6146 78.739 28.3368 78.8931 28.0911 78.8931C26.3698 78.8931 24.6517 78.8931 22.8832 78.8931C22.3857 78.8931 21.9497 78.5051 21.9496 78.0076C21.9473 66.4684 21.9425 54.9293 21.9518 43.3901C21.9519 43.269 21.9546 43.1523 21.9602 43.0399Z" fill="#FB718F"/>
<path d="M49.7033 49.5603C50.6189 47.164 55.442 47.1377 56.3579 49.5338C56.4444 49.7602 56.4859 50.0156 56.4869 50.3041C56.5184 59.7276 56.509 69.151 56.5082 78.5744C56.5082 78.7786 56.2596 78.893 56.0555 78.893C54.1531 78.893 52.2555 78.893 50.2966 78.893C49.8979 78.893 49.5404 78.5861 49.5403 78.1874C49.5378 68.9921 49.5329 59.7969 49.5426 50.6016C49.543 50.196 49.5916 49.8527 49.7033 49.5603Z" fill="#FB718F"/>
<path d="M102.855 22.7406H111.028L129.494 67.8449H130.175L148.64 22.7406H156.814V77.5317H150.381V36.1357H149.851L132.824 77.5317H126.769L109.742 36.1357H109.288V77.5317H102.855V22.7406Z" fill="#FB718F"/>
<path d="M164.99 77.5317V36.4384H171.498V77.5317H164.99ZM168.244 29.6273C165.747 29.6273 163.703 27.7354 163.703 25.3137C163.703 22.892 165.747 21 168.244 21C170.742 21 172.861 22.892 172.861 25.3137C172.861 27.7354 170.742 29.6273 168.244 29.6273Z" fill="#FB718F"/>
<path d="M178.767 77.5317V36.4384H185.048V42.8711H185.578C187.318 38.4817 191.253 35.9086 196.627 35.9086C202 35.9086 205.632 38.4817 207.6 42.8711H208.054C210.173 38.6331 214.487 35.9086 220.39 35.9086C227.73 35.9086 232.952 40.3737 232.952 50.0605V77.5317H226.444V50.1362C226.444 44.0819 222.584 41.7359 218.119 41.7359C212.368 41.7359 209.114 45.5955 209.114 50.8173V77.5317H202.53V49.4551C202.53 44.8387 199.2 41.7359 194.508 41.7359C189.589 41.7359 185.275 45.8982 185.275 51.8768V77.5317H178.767Z" fill="#FB718F"/>
<path d="M257.097 78.3642C245.896 78.3642 238.328 69.9639 238.328 57.1743C238.328 44.3846 245.896 35.9086 257.097 35.9086C268.221 35.9086 275.714 44.3846 275.714 57.1743C275.714 69.9639 268.221 78.3642 257.097 78.3642ZM257.097 72.6127C265.346 72.6127 269.205 65.3475 269.205 57.1743C269.205 49.001 265.346 41.6602 257.097 41.6602C248.696 41.6602 244.837 49.001 244.837 57.1743C244.837 65.3475 248.696 72.6127 257.097 72.6127Z" fill="#FB718F"/>
<path d="M275.944 28.7949V22.7406H317.264V28.7949H300.085V77.5317H293.198V28.7949H275.944Z" fill="#FB718F"/>
<path d="M333.235 78.3642C322.035 78.3642 314.467 69.9639 314.467 57.1743C314.467 44.3846 322.035 35.9086 333.235 35.9086C344.36 35.9086 351.852 44.3846 351.852 57.1743C351.852 69.9639 344.36 78.3642 333.235 78.3642ZM333.235 72.6127C341.484 72.6127 345.344 65.3475 345.344 57.1743C345.344 49.001 341.484 41.6602 333.235 41.6602C324.835 41.6602 320.975 49.001 320.975 57.1743C320.975 65.3475 324.835 72.6127 333.235 72.6127Z" fill="#FB718F"/>
<path d="M357.304 77.5317V22.7406H363.812V54.6012H364.569L382.353 36.4384H390.375L373.045 53.9958L391.662 77.5317H383.413L368.202 58.1581L363.812 62.169V77.5317H357.304Z" fill="#FB718F"/>
</svg>
